<svg id="Layer_1" data-name="Layer 1" xmlns="http://www.w3.org/2000/svg" xmlns:xlink="http://www.w3.org/1999/xlink" viewBox="0 0 382 500.36"><defs><style>.cls-1{fill:#fff;}.cls-2{fill:#8d0200;}.cls-3{fill:url(#Безымянный_градиент);}.cls-4{fill:url(#Безымянный_градиент_2);}.cls-5{fill:url(#Безымянный_градиент_3);}.cls-6{fill:url(#Безымянный_градиент_4);}.cls-7{fill:url(#Безымянный_градиент_5);}.cls-8{fill:url(#Безымянный_градиент_6);}.cls-9{fill:url(#Безымянный_градиент_7);}.cls-10{fill:url(#Безымянный_градиент_8);}.cls-11{fill:url(#Безымянный_градиент_9);}.cls-12{fill:url(#Безымянный_градиент_10);}.cls-13{fill:url(#Безымянный_градиент_11);}.cls-14{fill:url(#Безымянный_градиент_12);}.cls-15{fill:url(#Безымянный_градиент_13);}.cls-16{fill:url(#Безымянный_градиент_14);}.cls-17{fill:url(#Безымянный_градиент_15);}.cls-18{fill:url(#Безымянный_градиент_16);}.cls-19{fill:url(#Безымянный_градиент_17);}.cls-20{fill:url(#Безымянный_градиент_18);}.cls-21{fill:url(#Безымянный_градиент_19);}</style><radialGradient id="Безымянный_градиент" cx="-426.78" cy="211.3" r="117.83" gradientTransform="matrix(1, 0, 0, -1, 617.7, 634.83)" gradientUnits="userSpaceOnUse"><stop offset="0" stop-color="#c60600"/><stop offset="1" stop-color="#930600"/></radialGradient><radialGradient id="Безымянный_градиент_2" cx="-426.78" cy="244.8" r="117.83" xlink:href="#Безымянный_градиент"/><radialGradient id="Безымянный_градиент_3" cx="-426.78" cy="278.3" r="117.83" xlink:href="#Безымянный_градиент"/><radialGradient id="Безымянный_градиент_4" cx="-1487.81" cy="685.75" r="27.88" gradientTransform="matrix(0.88, 0, 0, -0.88, 874.56, 788.59)" xlink:href="#Безымянный_градиент"/><radialGradient id="Безымянный_градиент_5" cx="-496.2" cy="541.05" r="4.91" gradientTransform="matrix(1, 0, 0, -1, 0, 767.89)" xlink:href="#Безымянный_градиент"/><radialGradient id="Безымянный_градиент_6" cx="-486.85" cy="539.81" r="5.03" gradientTransform="matrix(1, 0, 0, -1, 0, 767.89)" xlink:href="#Безымянный_градиент"/><radialGradient id="Безымянный_градиент_7" cx="-475.71" cy="539.81" r="5.01" gradientTransform="matrix(1, 0, 0, -1, 0, 767.89)" xlink:href="#Безымянный_градиент"/><radialGradient id="Безымянный_градиент_8" cx="-464.14" cy="541.49" r="5.83" gradientTransform="matrix(1, 0, 0, -1, 0, 767.89)" xlink:href="#Безымянный_градиент"/><radialGradient id="Безымянный_градиент_9" cx="-454.02" cy="539.89" r="4.17" gradientTransform="matrix(1, 0, 0, -1, 0, 767.89)" xlink:href="#Безымянный_градиент"/><radialGradient id="Безымянный_градиент_10" cx="-445.15" cy="539.81" r="5.03" gradientTransform="matrix(1, 0, 0, -1, 0, 767.89)" xlink:href="#Безымянный_градиент"/><radialGradient id="Безымянный_градиент_11" cx="-434.09" cy="539.82" r="5.11" gradientTransform="matrix(1, 0, 0, -1, 0, 767.89)" xlink:href="#Безымянный_градиент"/><radialGradient id="Безымянный_градиент_12" cx="-426.17" cy="541.94" r="5.15" gradientTransform="matrix(1, 0, 0, -1, 0, 767.89)" xlink:href="#Безымянный_градиент"/><radialGradient id="Безымянный_градиент_13" cx="-418.16" cy="539.81" r="5.03" gradientTransform="matrix(1, 0, 0, -1, 0, 767.89)" xlink:href="#Безымянный_градиент"/><radialGradient id="Безымянный_градиент_14" cx="-404.8" cy="539.82" r="6.46" gradientTransform="matrix(1, 0, 0, -1, 0, 767.89)" xlink:href="#Безымянный_градиент"/><radialGradient id="Безымянный_градиент_15" cx="-391.45" cy="539.81" r="5.03" gradientTransform="matrix(1, 0, 0, -1, 0, 767.89)" xlink:href="#Безымянный_градиент"/><radialGradient id="Безымянный_градиент_16" cx="-381.68" cy="539.89" r="4.17" gradientTransform="matrix(1, 0, 0, -1, 0, 767.89)" xlink:href="#Безымянный_градиент"/><radialGradient id="Безымянный_градиент_17" cx="-376.5" cy="536.16" r="1.35" gradientTransform="matrix(1, 0, 0, -1, 0, 767.89)" xlink:href="#Безымянный_градиент"/><radialGradient id="Безымянный_градиент_18" cx="-369.04" cy="539.81" r="5.01" gradientTransform="matrix(1, 0, 0, -1, 0, 767.89)" xlink:href="#Безымянный_градиент"/><radialGradient id="Безымянный_градиент_19" cx="-357.73" cy="539.82" r="5.11" gradientTransform="matrix(1, 0, 0, -1, 0, 767.89)" xlink:href="#Безымянный_градиент"/></defs><title>badge_techreviewer-cross-paltform</title><polygon class="cls-1" points="377 5 5 5 5 423 5 423.44 191 495 377 423.44 377 423 377 5"/><path class="cls-2" d="M-426.7,633.42l-191-73.48V133.06h382V559.94Zm-181-80.35,181,69.63,181-69.63v-410h-362v410Z" transform="translate(617.7 -133.06)"/><polygon class="cls-3" points="29.92 380.56 29.92 404.18 29.92 404.56 190.92 466.5 351.92 404.56 351.92 404.18 351.92 380.56 190.92 442.5 29.92 380.56"/><polygon class="cls-4" points="29.92 347.06 29.92 370.68 29.92 371.06 190.92 433 351.92 371.06 351.92 370.68 351.92 347.06 190.92 409 29.92 347.06"/><polygon class="cls-5" points="29.92 313.56 29.92 337.18 29.92 337.56 190.92 399.5 351.92 337.56 351.92 337.18 351.92 313.56 190.92 375.5 29.92 313.56"/><path class="cls-6" d="M-435.2,180.16s-16.89,2.2-17.08,2.78,12.19,12.28,12.19,12.28-3.13,16.74-2.64,17.1,15.44-7.79,15.44-7.79,15,8.15,15.45,7.79-2.63-17.1-2.63-17.1,12.37-11.7,12.19-12.28-17.08-2.78-17.08-2.78-7.32-15.38-7.92-15.38S-435.2,180.16-435.2,180.16Z" transform="translate(617.7 -133.06)"/><path d="M-454,275.36v9.52h-13.44v40h-12v-40h-13.3v-9.52Z" transform="translate(617.7 -133.06)"/><path d="M-412.74,277.84a23.8,23.8,0,0,1,9,9,25.94,25.94,0,0,1,3.29,13.06A25.94,25.94,0,0,1-403.77,313a23.88,23.88,0,0,1-9,9.06,25.06,25.06,0,0,1-12.64,3.26,25,25,0,0,1-12.63-3.26,24,24,0,0,1-9-9.06,25.84,25.84,0,0,1-3.32-13.09,25.78,25.78,0,0,1,3.32-13.06,24,24,0,0,1,9-9,25,25,0,0,1,12.63-3.25A25.19,25.19,0,0,1-412.74,277.84Zm-22.05,11.69q-3.46,3.81-3.47,10.4t3.47,10.36a11.92,11.92,0,0,0,9.34,3.85,12,12,0,0,0,9.31-3.85q3.5-3.85,3.5-10.36t-3.46-10.36a12,12,0,0,0-9.35-3.85A12,12,0,0,0-434.79,289.53Z" transform="translate(617.7 -133.06)"/><path d="M-381.77,307.49v17.36h-12V275.36h19.39q8.82,0,13.44,4.38t4.62,11.8a16.19,16.19,0,0,1-2.07,8.22,14.4,14.4,0,0,1-6.12,5.67,21.55,21.55,0,0,1-9.87,2.06Zm13.3-16q0-6.51-7.21-6.51h-6.09V297.9h6.09Q-368.46,297.9-368.47,291.53Z" transform="translate(617.7 -133.06)"/><path d="M-542.4,349.19a11.72,11.72,0,0,1,4.12,6.91h-6.52a6,6,0,0,0-2.21-2.77,6.22,6.22,0,0,0-3.55-1,5.42,5.42,0,0,0-4.36,2,8,8,0,0,0-1.66,5.29,7.85,7.85,0,0,0,1.66,5.27,5.42,5.42,0,0,0,4.36,2,6.22,6.22,0,0,0,3.55-1,5.93,5.93,0,0,0,2.21-2.74h6.52A11.73,11.73,0,0,1-542.4,370a12.37,12.37,0,0,1-8.05,2.57,12.76,12.76,0,0,1-6.52-1.64,11,11,0,0,1-4.34-4.59,14.41,14.41,0,0,1-1.53-6.73,14.41,14.41,0,0,1,1.53-6.73,11.11,11.11,0,0,1,4.34-4.59,12.7,12.7,0,0,1,6.52-1.64A12.57,12.57,0,0,1-542.4,349.19Z" transform="translate(617.7 -133.06)"/><path d="M-525.7,353.11a7.59,7.59,0,0,1,3.94-1.08v6.59h-1.76a6.13,6.13,0,0,0-3.8,1,4.19,4.19,0,0,0-1.35,3.53v9.14h-6.16V352.24h6.16V356A8.79,8.79,0,0,1-525.7,353.11Z" transform="translate(617.7 -133.06)"/><path d="M-504.42,353.24a9.13,9.13,0,0,1,3.71,3.58,10.74,10.74,0,0,1,1.35,5.47,10.74,10.74,0,0,1-1.35,5.47,9.13,9.13,0,0,1-3.71,3.58,11.26,11.26,0,0,1-5.35,1.24,11.36,11.36,0,0,1-5.36-1.24,9.12,9.12,0,0,1-3.73-3.58,10.74,10.74,0,0,1-1.35-5.47,10.74,10.74,0,0,1,1.35-5.47,9.06,9.06,0,0,1,3.73-3.58,11.36,11.36,0,0,1,5.36-1.24A11.29,11.29,0,0,1-504.42,353.24Zm-8.32,5.36a5.19,5.19,0,0,0-1.21,3.69,5.08,5.08,0,0,0,1.21,3.67,3.94,3.94,0,0,0,3,1.26,3.88,3.88,0,0,0,2.95-1.26,5.16,5.16,0,0,0,1.19-3.67,5.23,5.23,0,0,0-1.19-3.69,3.88,3.88,0,0,0-2.95-1.28A4,4,0,0,0-512.74,358.6Z" transform="translate(617.7 -133.06)"/><path d="M-482.75,353.9a8.28,8.28,0,0,1,2.86,5h-5.76a3.24,3.24,0,0,0-1.13-1.93,3.44,3.44,0,0,0-2.21-.7,2.4,2.4,0,0,0-1.58.45,1.58,1.58,0,0,0-.54,1.28,1.5,1.5,0,0,0,1,1.4,16.53,16.53,0,0,0,3.11.94,30.82,30.82,0,0,1,3.78,1.1,6.26,6.26,0,0,1,2.56,1.82,5,5,0,0,1,1.08,3.38,5.16,5.16,0,0,1-.94,3.06,6.15,6.15,0,0,1-2.7,2.09,10.65,10.65,0,0,1-4.18.76,10.79,10.79,0,0,1-6.52-1.8,7.61,7.61,0,0,1-3-5.15H-491a2.69,2.69,0,0,0,1.1,2,4.12,4.12,0,0,0,2.47.68,2.25,2.25,0,0,0,1.58-.49,1.63,1.63,0,0,0,.54-1.28,1.53,1.53,0,0,0-1-1.49,17.68,17.68,0,0,0-3.22-1,25.37,25.37,0,0,1-3.67-1,6,6,0,0,1-2.48-1.75,4.83,4.83,0,0,1-1-3.29,5.35,5.35,0,0,1,2.05-4.37,8.93,8.93,0,0,1,5.8-1.67A9.21,9.21,0,0,1-482.75,353.9Z" transform="translate(617.7 -133.06)"/><path d="M-462.77,353.9a8.28,8.28,0,0,1,2.86,5h-5.76A3.24,3.24,0,0,0-466.8,357a3.44,3.44,0,0,0-2.21-.7,2.4,2.4,0,0,0-1.58.45,1.58,1.58,0,0,0-.54,1.28,1.5,1.5,0,0,0,1,1.4,16.53,16.53,0,0,0,3.11.94,30.82,30.82,0,0,1,3.78,1.1,6.26,6.26,0,0,1,2.56,1.82,5,5,0,0,1,1.08,3.38,5.16,5.16,0,0,1-.94,3.06,6.15,6.15,0,0,1-2.7,2.09,10.65,10.65,0,0,1-4.18.76,10.79,10.79,0,0,1-6.52-1.8,7.61,7.61,0,0,1-3-5.15H-471a2.69,2.69,0,0,0,1.1,2,4.12,4.12,0,0,0,2.47.68,2.25,2.25,0,0,0,1.58-.49,1.63,1.63,0,0,0,.54-1.28,1.53,1.53,0,0,0-1-1.49,17.68,17.68,0,0,0-3.22-1,25.37,25.37,0,0,1-3.67-1,6,6,0,0,1-2.48-1.75,4.83,4.83,0,0,1-1-3.29,5.35,5.35,0,0,1,2-4.37,8.93,8.93,0,0,1,5.8-1.67A9.21,9.21,0,0,1-462.77,353.9Z" transform="translate(617.7 -133.06)"/><path d="M-442.84,363.41v8.93H-449V346.89h10c3,0,5.33.75,6.91,2.25a8,8,0,0,1,2.38,6.07,8.36,8.36,0,0,1-1.06,4.23,7.38,7.38,0,0,1-3.15,2.92,11.06,11.06,0,0,1-5.08,1.06h-3.81Zm6.84-8.21q0-3.34-3.71-3.35h-3.13v6.62h3.13C-437.24,358.48-436,357.38-436,355.2Z" transform="translate(617.7 -133.06)"/><path d="M-420.56,345.7v26.64h-6.16V345.7Z" transform="translate(617.7 -133.06)"/><path d="M-404.72,353a6.33,6.33,0,0,1,2.45,2.84v-3.64h6.12v20.09h-6.12v-3.64a6.22,6.22,0,0,1-2.45,2.84,7.22,7.22,0,0,1-4,1,8.13,8.13,0,0,1-4.45-1.24,8.53,8.53,0,0,1-3.1-3.58,12.34,12.34,0,0,1-1.13-5.47,12.48,12.48,0,0,1,1.13-5.49,8.4,8.4,0,0,1,3.1-3.56,8.13,8.13,0,0,1,4.45-1.24A7.36,7.36,0,0,1-404.72,353Zm-5.17,5.65a5.09,5.09,0,0,0-1.21,3.6,5,5,0,0,0,1.21,3.6,4.17,4.17,0,0,0,3.19,1.3,4.16,4.16,0,0,0,3.19-1.33,5,5,0,0,0,1.24-3.56,5,5,0,0,0-1.24-3.58,4.21,4.21,0,0,0-3.19-1.31A4.1,4.1,0,0,0-409.89,358.69Z" transform="translate(617.7 -133.06)"/><path d="M-380.53,367v5.29h-2.77a8,8,0,0,1-5.49-1.75q-2-1.74-2-5.78v-7.38h-2.7v-5.18h2.7v-4.93h6.16v4.93h4v5.18h-4v7.49a2.26,2.26,0,0,0,.49,1.66,2.3,2.3,0,0,0,1.64.47Z" transform="translate(617.7 -133.06)"/><path d="M-367.21,349.51a3.14,3.14,0,0,0-2.2.65,3,3,0,0,0-.76,2.09h3.64v5.18h-3.64v14.9h-6.16v-14.9h-2.41v-5.18h2.41V352a7.53,7.53,0,0,1,2.18-5.78c1.45-1.36,3.56-2,6.32-2,.58,0,1,0,1.3,0v5.29Z" transform="translate(617.7 -133.06)"/><path d="M-349.08,353.24a9.13,9.13,0,0,1,3.71,3.58,10.74,10.74,0,0,1,1.35,5.47,10.74,10.74,0,0,1-1.35,5.47,9.13,9.13,0,0,1-3.71,3.58,11.26,11.26,0,0,1-5.35,1.24,11.33,11.33,0,0,1-5.36-1.24,9.12,9.12,0,0,1-3.73-3.58,10.74,10.74,0,0,1-1.35-5.47,10.74,10.74,0,0,1,1.35-5.47,9.06,9.06,0,0,1,3.73-3.58,11.39,11.39,0,0,1,5.36-1.24A11.32,11.32,0,0,1-349.08,353.24Zm-8.32,5.36a5.19,5.19,0,0,0-1.21,3.69A5.08,5.08,0,0,0-357.4,366a3.94,3.94,0,0,0,3,1.26,3.88,3.88,0,0,0,2.95-1.26,5.16,5.16,0,0,0,1.19-3.67,5.23,5.23,0,0,0-1.19-3.69,3.88,3.88,0,0,0-2.95-1.28A3.93,3.93,0,0,0-357.4,358.6Z" transform="translate(617.7 -133.06)"/><path d="M-331.7,353.11a7.59,7.59,0,0,1,3.94-1.08v6.59h-1.76a6.13,6.13,0,0,0-3.8,1,4.2,4.2,0,0,0-1.35,3.53v9.14h-6.16V352.24h6.16V356A8.79,8.79,0,0,1-331.7,353.11Z" transform="translate(617.7 -133.06)"/><path d="M-293.3,354.32a8.94,8.94,0,0,1,2.12,6.35v11.66h-6.12V361.39a4.08,4.08,0,0,0-1-3,3.68,3.68,0,0,0-2.79-1.06,3.81,3.81,0,0,0-2.9,1.13,4.49,4.49,0,0,0-1.06,3.19v10.66h-6.16V361.4a4.16,4.16,0,0,0-1-3,3.63,3.63,0,0,0-2.77-1.06,3.86,3.86,0,0,0-2.92,1.12,4.41,4.41,0,0,0-1.08,3.2v10.66h-6.16V352.26H-319v3.42a6,6,0,0,1,2.43-2.66,7.34,7.34,0,0,1,3.83-1,7.72,7.72,0,0,1,4.07,1.06,6.65,6.65,0,0,1,2.66,3,8.12,8.12,0,0,1,2.86-3,7.55,7.55,0,0,1,4-1.12A7.54,7.54,0,0,1-293.3,354.32Z" transform="translate(617.7 -133.06)"/><path d="M-554.68,407.69h-9.54l-1.58,4.64h-6.48l9.32-25.27h7.09l9.32,25.27h-6.55Zm-1.58-4.68-3.17-9.36-3.2,9.36Z" transform="translate(617.7 -133.06)"/><path d="M-527.19,393.24a8.59,8.59,0,0,1,3.1,3.56,12.34,12.34,0,0,1,1.13,5.49,12.48,12.48,0,0,1-1.13,5.47,8.53,8.53,0,0,1-3.1,3.58,8.13,8.13,0,0,1-4.45,1.24,7.3,7.3,0,0,1-4-1A6.07,6.07,0,0,1-538,408.7v13.21h-6.16V392.25H-538v3.64a6,6,0,0,1,2.41-2.84,7.22,7.22,0,0,1,4-1A8,8,0,0,1-527.19,393.24Zm-9.61,5.47a5,5,0,0,0-1.24,3.58,5,5,0,0,0,1.24,3.56,4.16,4.16,0,0,0,3.19,1.33,4.15,4.15,0,0,0,3.19-1.3,5.09,5.09,0,0,0,1.21-3.6,5,5,0,0,0-1.21-3.6,4.17,4.17,0,0,0-3.19-1.3A4.21,4.21,0,0,0-536.8,398.71Z" transform="translate(617.7 -133.06)"/><path d="M-502.78,393.24a8.59,8.59,0,0,1,3.1,3.56,12.34,12.34,0,0,1,1.13,5.49,12.48,12.48,0,0,1-1.13,5.47,8.53,8.53,0,0,1-3.1,3.58,8.13,8.13,0,0,1-4.45,1.24,7.3,7.3,0,0,1-4-1,6.07,6.07,0,0,1-2.41-2.84v13.21h-6.16V392.25h6.16v3.64a6,6,0,0,1,2.41-2.84,7.22,7.22,0,0,1,4-1A8,8,0,0,1-502.78,393.24Zm-9.62,5.47a5,5,0,0,0-1.24,3.58,5,5,0,0,0,1.24,3.56,4.16,4.16,0,0,0,3.19,1.33,4.15,4.15,0,0,0,3.19-1.3,5.09,5.09,0,0,0,1.21-3.6,5,5,0,0,0-1.21-3.6,4.17,4.17,0,0,0-3.19-1.3A4.23,4.23,0,0,0-512.4,398.71Z" transform="translate(617.7 -133.06)"/><path d="M-466.86,406.2a11.22,11.22,0,0,1-4.61,4.52,14.67,14.67,0,0,1-7.07,1.62h-9.61V386.89h9.61a15,15,0,0,1,7.09,1.58,11.09,11.09,0,0,1,4.59,4.46,13.38,13.38,0,0,1,1.6,6.62A13.39,13.39,0,0,1-466.86,406.2Zm-6.62-1.28a7.07,7.07,0,0,0,2-5.36,7.07,7.07,0,0,0-2-5.36,7.79,7.79,0,0,0-5.6-1.91H-482v14.54h2.92A7.79,7.79,0,0,0-473.48,404.92Z" transform="translate(617.7 -133.06)"/><path d="M-442.86,403.41h-13.93a4.68,4.68,0,0,0,1.15,3.26,3.71,3.71,0,0,0,2.66,1,3.69,3.69,0,0,0,2.27-.68,3.19,3.19,0,0,0,1.19-1.76H-443a8.46,8.46,0,0,1-1.73,3.8,9.28,9.28,0,0,1-3.38,2.63,10.65,10.65,0,0,1-4.57,1,10.79,10.79,0,0,1-5.24-1.24,8.88,8.88,0,0,1-3.58-3.58,11.15,11.15,0,0,1-1.3-5.47,11.25,11.25,0,0,1,1.28-5.49,8.71,8.71,0,0,1,3.58-3.56,10.9,10.9,0,0,1,5.26-1.24,11,11,0,0,1,5.26,1.22,8.68,8.68,0,0,1,3.51,3.44,10.21,10.21,0,0,1,1.24,5.09A9.39,9.39,0,0,1-442.86,403.41Zm-7.11-5.56a3.91,3.91,0,0,0-2.72-1,4.05,4.05,0,0,0-2.81,1,4.26,4.26,0,0,0-1.26,2.95h7.85A3.72,3.72,0,0,0-450,397.85Z" transform="translate(617.7 -133.06)"/><path d="M-430.19,406.32l4.36-14.08h6.55l-7.13,20.09H-434l-7.13-20.09h6.55Z" transform="translate(617.7 -133.06)"/><path d="M-397.83,403.41h-13.93a4.68,4.68,0,0,0,1.15,3.26,3.71,3.71,0,0,0,2.66,1,3.69,3.69,0,0,0,2.27-.68,3.19,3.19,0,0,0,1.19-1.76H-398a8.46,8.46,0,0,1-1.73,3.8,9.28,9.28,0,0,1-3.38,2.63,10.65,10.65,0,0,1-4.57,1,10.79,10.79,0,0,1-5.24-1.24,8.88,8.88,0,0,1-3.58-3.58,11.15,11.15,0,0,1-1.3-5.47,11.25,11.25,0,0,1,1.28-5.49,8.71,8.71,0,0,1,3.58-3.56,10.9,10.9,0,0,1,5.26-1.24,11,11,0,0,1,5.26,1.22,8.68,8.68,0,0,1,3.51,3.44,10.21,10.21,0,0,1,1.24,5.09A9.39,9.39,0,0,1-397.83,403.41Zm-7.11-5.56a3.91,3.91,0,0,0-2.72-1,4.05,4.05,0,0,0-2.81,1,4.21,4.21,0,0,0-1.26,2.95h7.85A3.69,3.69,0,0,0-404.94,397.85Z" transform="translate(617.7 -133.06)"/><path d="M-388.29,385.7v26.64h-6.16V385.7Z" transform="translate(617.7 -133.06)"/><path d="M-369.3,393.24a9.13,9.13,0,0,1,3.71,3.58,10.74,10.74,0,0,1,1.35,5.47,10.74,10.74,0,0,1-1.35,5.47,9.13,9.13,0,0,1-3.71,3.58,11.26,11.26,0,0,1-5.35,1.24,11.33,11.33,0,0,1-5.36-1.24,9.12,9.12,0,0,1-3.73-3.58,10.74,10.74,0,0,1-1.35-5.47,10.74,10.74,0,0,1,1.35-5.47,9.06,9.06,0,0,1,3.73-3.58,11.39,11.39,0,0,1,5.36-1.24A11.29,11.29,0,0,1-369.3,393.24Zm-8.31,5.36a5.19,5.19,0,0,0-1.21,3.69,5.08,5.08,0,0,0,1.21,3.67,3.94,3.94,0,0,0,3,1.26,3.88,3.88,0,0,0,2.95-1.26,5.16,5.16,0,0,0,1.19-3.67,5.23,5.23,0,0,0-1.19-3.69,3.88,3.88,0,0,0-2.95-1.28A3.93,3.93,0,0,0-377.61,398.6Z" transform="translate(617.7 -133.06)"/><path d="M-344.06,393.24a8.59,8.59,0,0,1,3.1,3.56,12.31,12.31,0,0,1,1.13,5.49,12.48,12.48,0,0,1-1.13,5.47,8.53,8.53,0,0,1-3.1,3.58,8.13,8.13,0,0,1-4.45,1.24,7.3,7.3,0,0,1-4-1,6.07,6.07,0,0,1-2.41-2.84v13.21H-361V392.25h6.16v3.64a6,6,0,0,1,2.41-2.84,7.22,7.22,0,0,1,4-1A8,8,0,0,1-344.06,393.24Zm-9.61,5.47a5,5,0,0,0-1.24,3.58,5,5,0,0,0,1.24,3.56,4.16,4.16,0,0,0,3.19,1.33,4.15,4.15,0,0,0,3.19-1.3,5.09,5.09,0,0,0,1.21-3.6,5,5,0,0,0-1.21-3.6,4.17,4.17,0,0,0-3.19-1.3A4.21,4.21,0,0,0-353.67,398.71Z" transform="translate(617.7 -133.06)"/><path d="M-317.73,403.41h-13.93a4.68,4.68,0,0,0,1.15,3.26,3.71,3.71,0,0,0,2.66,1,3.69,3.69,0,0,0,2.27-.68,3.19,3.19,0,0,0,1.19-1.76h6.52a8.46,8.46,0,0,1-1.73,3.8,9.28,9.28,0,0,1-3.38,2.63,10.65,10.65,0,0,1-4.57,1,10.79,10.79,0,0,1-5.24-1.24,8.88,8.88,0,0,1-3.58-3.58,11.15,11.15,0,0,1-1.3-5.47,11.25,11.25,0,0,1,1.28-5.49,8.71,8.71,0,0,1,3.58-3.56,10.9,10.9,0,0,1,5.26-1.24,11.08,11.08,0,0,1,5.27,1.22,8.68,8.68,0,0,1,3.51,3.44,10.21,10.21,0,0,1,1.24,5.09A10.57,10.57,0,0,1-317.73,403.41Zm-7.11-5.56a3.91,3.91,0,0,0-2.72-1,4.05,4.05,0,0,0-2.81,1,4.21,4.21,0,0,0-1.26,2.95h7.85A3.69,3.69,0,0,0-324.84,397.85Z" transform="translate(617.7 -133.06)"/><path d="M-305.22,393.11a7.59,7.59,0,0,1,3.94-1.08v6.59H-303a6.13,6.13,0,0,0-3.8,1,4.2,4.2,0,0,0-1.35,3.53v9.14h-6.16V392.24h6.16V396A8.79,8.79,0,0,1-305.22,393.11Z" transform="translate(617.7 -133.06)"/><path d="M-285.28,393.9a8.28,8.28,0,0,1,2.86,5h-5.76a3.24,3.24,0,0,0-1.13-1.93,3.44,3.44,0,0,0-2.21-.7,2.4,2.4,0,0,0-1.58.45,1.58,1.58,0,0,0-.54,1.28,1.5,1.5,0,0,0,1,1.4,16.53,16.53,0,0,0,3.11.94,30.82,30.82,0,0,1,3.78,1.1,6.26,6.26,0,0,1,2.56,1.82,5,5,0,0,1,1.08,3.38,5.16,5.16,0,0,1-.94,3.06,6.21,6.21,0,0,1-2.7,2.09,10.47,10.47,0,0,1-4.18.76,10.79,10.79,0,0,1-6.52-1.8,7.61,7.61,0,0,1-3-5.15h5.94a2.69,2.69,0,0,0,1.1,2,4.12,4.12,0,0,0,2.47.68,2.25,2.25,0,0,0,1.58-.49,1.63,1.63,0,0,0,.54-1.28,1.53,1.53,0,0,0-1-1.49,17.68,17.68,0,0,0-3.22-1,25.37,25.37,0,0,1-3.67-1,6,6,0,0,1-2.48-1.75,4.83,4.83,0,0,1-1-3.29,5.35,5.35,0,0,1,2.05-4.37,9,9,0,0,1,5.8-1.67A9.19,9.19,0,0,1-285.28,393.9Z" transform="translate(617.7 -133.06)"/><path d="M-450.72,448.42c0-1.53-.66-2.3-2-2.3a1.83,1.83,0,0,0-1.64.78,4.68,4.68,0,0,0-.57,2.44h-4.68a7.44,7.44,0,0,1,2.18-5.43,7.32,7.32,0,0,1,5.1-1.82,6.63,6.63,0,0,1,4.86,1.62,5.7,5.7,0,0,1,1.64,4.23,9,9,0,0,1-2.21,5.64,20.58,20.58,0,0,1-5.29,4.66h7.81v3.86h-14.11v-3.58Q-450.72,452.18-450.72,448.42Z" transform="translate(617.7 -133.06)"/><path d="M-443.56,452.23a12.64,12.64,0,0,1,1.88-7.32q1.88-2.7,6-2.7t6,2.7a12.56,12.56,0,0,1,1.89,7.32,12.68,12.68,0,0,1-1.89,7.36q-1.89,2.71-6,2.72t-6-2.72A12.75,12.75,0,0,1-443.56,452.23Zm11,0a10.34,10.34,0,0,0-.63-4.07,2.45,2.45,0,0,0-2.48-1.41,2.5,2.5,0,0,0-2.52,1.43,10.18,10.18,0,0,0-.64,4.06,10.36,10.36,0,0,0,.64,4.1,2.49,2.49,0,0,0,2.52,1.44,2.44,2.44,0,0,0,2.48-1.44A10.66,10.66,0,0,0-432.58,452.23Z" transform="translate(617.7 -133.06)"/><path d="M-416.84,448.42c0-1.53-.66-2.3-2-2.3a1.83,1.83,0,0,0-1.64.78,4.68,4.68,0,0,0-.57,2.44h-4.68a7.44,7.44,0,0,1,2.18-5.43,7.32,7.32,0,0,1,5.1-1.82,6.63,6.63,0,0,1,4.86,1.62,5.7,5.7,0,0,1,1.64,4.23,9,9,0,0,1-2.21,5.64,20.58,20.58,0,0,1-5.29,4.66h7.81v3.86h-14.11v-3.58Q-416.84,452.18-416.84,448.42Z" transform="translate(617.7 -133.06)"/><path d="M-409.68,452.23a12.56,12.56,0,0,1,1.88-7.32c1.26-1.8,3.25-2.7,6-2.7s4.72.9,6,2.7a12.56,12.56,0,0,1,1.89,7.32,12.68,12.68,0,0,1-1.89,7.36q-1.89,2.71-6,2.72t-6-2.72A12.75,12.75,0,0,1-409.68,452.23Zm11,0a10.34,10.34,0,0,0-.63-4.07,2.45,2.45,0,0,0-2.48-1.41,2.5,2.5,0,0,0-2.52,1.43,10.18,10.18,0,0,0-.64,4.06,10.36,10.36,0,0,0,.64,4.1,2.49,2.49,0,0,0,2.52,1.44,2.44,2.44,0,0,0,2.48-1.44A10.66,10.66,0,0,0-398.7,452.23Z" transform="translate(617.7 -133.06)"/><path class="cls-7" d="M-493.11,230.88v2.18h-1.33a3.7,3.7,0,0,1-2.57-.81,3.48,3.48,0,0,1-.89-2.7v-4.32h-1.39v-2.14h1.39v-2.47h2.54v2.47h2.23v2.14h-2.23v4.36a1.42,1.42,0,0,0,.29,1,1.35,1.35,0,0,0,1,.29h1Z" transform="translate(617.7 -133.06)"/><path class="cls-8" d="M-482,228.56h-7.31a2.77,2.77,0,0,0,.72,2,2.32,2.32,0,0,0,1.66.63,2.39,2.39,0,0,0,1.47-.43,1.94,1.94,0,0,0,.75-1.17H-482a4.15,4.15,0,0,1-.85,1.87,4.52,4.52,0,0,1-1.67,1.3,5.38,5.38,0,0,1-2.26.47,5.33,5.33,0,0,1-2.59-.62,4.35,4.35,0,0,1-1.76-1.77,5.58,5.58,0,0,1-.63-2.72,5.64,5.64,0,0,1,.63-2.73,4.29,4.29,0,0,1,1.76-1.77,5.36,5.36,0,0,1,2.59-.61,5.24,5.24,0,0,1,2.58.61,4.32,4.32,0,0,1,1.71,1.68,4.9,4.9,0,0,1,.6,2.44A3.93,3.93,0,0,1-482,228.56Zm-3.11-3a2.43,2.43,0,0,0-1.7-.63,2.51,2.51,0,0,0-1.73.63,2.54,2.54,0,0,0-.77,1.85h4.84A2.23,2.23,0,0,0-485.11,225.59Z" transform="translate(617.7 -133.06)"/><path class="cls-9" d="M-472.42,224a4.52,4.52,0,0,1,1.61,2.84h-2.68a2,2,0,0,0-.74-1.25,2.32,2.32,0,0,0-1.46-.46,2.17,2.17,0,0,0-1.68.75,3.17,3.17,0,0,0-.68,2.19,3.17,3.17,0,0,0,.68,2.19,2.17,2.17,0,0,0,1.68.75,2.26,2.26,0,0,0,1.46-.46,2.11,2.11,0,0,0,.74-1.25h2.68a4.54,4.54,0,0,1-1.61,2.84,4.91,4.91,0,0,1-3.21,1,5.33,5.33,0,0,1-2.59-.62A4.35,4.35,0,0,1-480,230.8a5.58,5.58,0,0,1-.63-2.72,5.64,5.64,0,0,1,.63-2.73,4.29,4.29,0,0,1,1.76-1.77,5.36,5.36,0,0,1,2.59-.61A4.86,4.86,0,0,1-472.42,224Z" transform="translate(617.7 -133.06)"/><path class="cls-10" d="M-460.31,224.08a4.62,4.62,0,0,1,1,3.19v5.8h-2.52v-5.51a2.57,2.57,0,0,0-.61-1.84,2.18,2.18,0,0,0-1.67-.66,2.23,2.23,0,0,0-1.73.7,2.88,2.88,0,0,0-.65,2v5.28H-469V219.74h2.54v5.35a3.21,3.21,0,0,1,1.3-1.58,3.86,3.86,0,0,1,2.1-.57A3.52,3.52,0,0,1-460.31,224.08Z" transform="translate(617.7 -133.06)"/><path class="cls-11" d="M-453,223.49a3.89,3.89,0,0,1,2.05-.55v2.72h-.74c-1.86,0-2.79.86-2.79,2.59v4.81h-2.54v-10h2.54V225A4.2,4.2,0,0,1-453,223.49Z" transform="translate(617.7 -133.06)"/><path class="cls-12" d="M-440.3,228.56h-7.31a2.77,2.77,0,0,0,.72,2,2.32,2.32,0,0,0,1.66.63,2.39,2.39,0,0,0,1.47-.43,1.94,1.94,0,0,0,.75-1.17h2.68a4.15,4.15,0,0,1-.85,1.87,4.52,4.52,0,0,1-1.67,1.3,5.38,5.38,0,0,1-2.26.47,5.33,5.33,0,0,1-2.59-.62,4.35,4.35,0,0,1-1.76-1.77,5.58,5.58,0,0,1-.63-2.72,5.64,5.64,0,0,1,.63-2.73,4.29,4.29,0,0,1,1.76-1.77,5.36,5.36,0,0,1,2.59-.61,5.24,5.24,0,0,1,2.58.61,4.32,4.32,0,0,1,1.71,1.68,4.9,4.9,0,0,1,.6,2.44A3.93,3.93,0,0,1-440.3,228.56Zm-3.1-3a2.43,2.43,0,0,0-1.7-.63,2.51,2.51,0,0,0-1.73.63,2.54,2.54,0,0,0-.77,1.85h4.84A2.26,2.26,0,0,0-443.4,225.59Z" transform="translate(617.7 -133.06)"/><path class="cls-13" d="M-434.07,230.52l2.52-7.43h2.7l-3.69,10h-3.1l-3.69-10h2.72Z" transform="translate(617.7 -133.06)"/><path class="cls-14" d="M-427.3,219.23a1.63,1.63,0,0,1,1.13-.39,1.6,1.6,0,0,1,1.13.39,1.27,1.27,0,0,1,.43,1,1.25,1.25,0,0,1-.43,1,1.63,1.63,0,0,1-1.13.39,1.6,1.6,0,0,1-1.13-.39,1.26,1.26,0,0,1-.43-1A1.26,1.26,0,0,1-427.3,219.23Zm2.39,3.86v10h-2.54v-10Z" transform="translate(617.7 -133.06)"/><path class="cls-15" d="M-413.31,228.56h-7.31a2.77,2.77,0,0,0,.72,2,2.32,2.32,0,0,0,1.66.63,2.39,2.39,0,0,0,1.47-.43,1.94,1.94,0,0,0,.75-1.17h2.68a4.15,4.15,0,0,1-.85,1.87,4.52,4.52,0,0,1-1.67,1.3,5.38,5.38,0,0,1-2.26.47,5.33,5.33,0,0,1-2.59-.62,4.35,4.35,0,0,1-1.76-1.77,5.58,5.58,0,0,1-.63-2.72,5.64,5.64,0,0,1,.63-2.73,4.29,4.29,0,0,1,1.76-1.77,5.36,5.36,0,0,1,2.59-.61,5.24,5.24,0,0,1,2.58.61,4.32,4.32,0,0,1,1.71,1.68,4.9,4.9,0,0,1,.6,2.44A3.93,3.93,0,0,1-413.31,228.56Zm-3.11-3a2.43,2.43,0,0,0-1.7-.63,2.51,2.51,0,0,0-1.73.63,2.54,2.54,0,0,0-.77,1.85h4.84A2.23,2.23,0,0,0-416.42,225.59Z" transform="translate(617.7 -133.06)"/><path class="cls-16" d="M-397.15,223.09l-2.68,10h-2.81l-2.14-7.25-2.2,7.25h-2.81l-2.66-10h2.54l1.62,7.7,2.21-7.7h2.68l2.23,7.7,1.64-7.7Z" transform="translate(617.7 -133.06)"/><path class="cls-17" d="M-386.6,228.56h-7.31a2.77,2.77,0,0,0,.72,2,2.32,2.32,0,0,0,1.66.63,2.39,2.39,0,0,0,1.47-.43,1.94,1.94,0,0,0,.75-1.17h2.68a4.15,4.15,0,0,1-.85,1.87,4.52,4.52,0,0,1-1.67,1.3,5.38,5.38,0,0,1-2.26.47,5.33,5.33,0,0,1-2.59-.62,4.35,4.35,0,0,1-1.76-1.77,5.58,5.58,0,0,1-.63-2.72,5.64,5.64,0,0,1,.63-2.73,4.29,4.29,0,0,1,1.76-1.77,5.36,5.36,0,0,1,2.59-.61,5.24,5.24,0,0,1,2.58.61,4.32,4.32,0,0,1,1.71,1.68,4.9,4.9,0,0,1,.6,2.44A3.93,3.93,0,0,1-386.6,228.56Zm-3.11-3a2.43,2.43,0,0,0-1.7-.63,2.51,2.51,0,0,0-1.73.63,2.54,2.54,0,0,0-.77,1.85h4.84A2.23,2.23,0,0,0-389.71,225.59Z" transform="translate(617.7 -133.06)"/><path class="cls-18" d="M-380.7,223.49a3.89,3.89,0,0,1,2.05-.55v2.72h-.74c-1.86,0-2.79.86-2.79,2.59v4.81h-2.54v-10h2.54V225A4.28,4.28,0,0,1-380.7,223.49Z" transform="translate(617.7 -133.06)"/><path class="cls-19" d="M-375.14,230.41v2.65h-2.74v-2.65Z" transform="translate(617.7 -133.06)"/><path class="cls-20" d="M-365.75,224a4.52,4.52,0,0,1,1.61,2.84h-2.68a2,2,0,0,0-.74-1.25,2.32,2.32,0,0,0-1.46-.46,2.17,2.17,0,0,0-1.68.75,3.17,3.17,0,0,0-.68,2.19,3.17,3.17,0,0,0,.68,2.19A2.17,2.17,0,0,0-369,231a2.26,2.26,0,0,0,1.46-.46,2.11,2.11,0,0,0,.74-1.25h2.68a4.54,4.54,0,0,1-1.61,2.84,4.91,4.91,0,0,1-3.21,1,5.33,5.33,0,0,1-2.59-.62,4.35,4.35,0,0,1-1.76-1.77,5.58,5.58,0,0,1-.63-2.72,5.64,5.64,0,0,1,.63-2.73,4.29,4.29,0,0,1,1.76-1.77A5.36,5.36,0,0,1-369,223,4.86,4.86,0,0,1-365.75,224Z" transform="translate(617.7 -133.06)"/><path class="cls-21" d="M-355.11,223.57a4.58,4.58,0,0,1,1.83,1.77,5.41,5.41,0,0,1,.67,2.73,5.28,5.28,0,0,1-.67,2.72,4.46,4.46,0,0,1-1.83,1.77,5.51,5.51,0,0,1-2.62.62,5.54,5.54,0,0,1-2.62-.62,4.58,4.58,0,0,1-1.83-1.77,5.38,5.38,0,0,1-.67-2.72,5.34,5.34,0,0,1,.67-2.73,4.4,4.4,0,0,1,1.83-1.77,5.5,5.5,0,0,1,2.62-.61A5.65,5.65,0,0,1-355.11,223.57Zm-4.42,2.33a3,3,0,0,0-.74,2.17,3,3,0,0,0,.74,2.17,2.42,2.42,0,0,0,1.8.75,2.42,2.42,0,0,0,1.8-.75,3,3,0,0,0,.74-2.17,3,3,0,0,0-.74-2.17,2.42,2.42,0,0,0-1.8-.75A2.46,2.46,0,0,0-359.53,225.9Z" transform="translate(617.7 -133.06)"/></svg>