<svg xmlns="http://www.w3.org/2000/svg" width="36" height="36" viewBox="0 0 36 36">
  <g id="twitter-new" transform="translate(-1198 -11028)">
    <circle id="Ellipse_54" data-name="Ellipse 54" cx="18" cy="18" r="18" transform="translate(1198 11028)" fill="#fe7d4c" opacity="0"/>
    <path id="Icon_awesome-twitter" data-name="Icon awesome-twitter" d="M17.807,7.4c.013.176.013.353.013.529A11.494,11.494,0,0,1,6.246,19.5,11.5,11.5,0,0,1,0,17.674a8.415,8.415,0,0,0,.982.05,8.146,8.146,0,0,0,5.05-1.738,4.075,4.075,0,0,1-3.8-2.821A5.13,5.13,0,0,0,3,13.229a4.3,4.3,0,0,0,1.07-.139A4.068,4.068,0,0,1,.806,9.1v-.05a4.1,4.1,0,0,0,1.839.516,4.074,4.074,0,0,1-1.259-5.44A11.562,11.562,0,0,0,9.772,8.38a4.592,4.592,0,0,1-.1-.932,4.071,4.071,0,0,1,7.04-2.783,8.008,8.008,0,0,0,2.582-.982A4.057,4.057,0,0,1,17.5,5.925a8.154,8.154,0,0,0,2.342-.63,8.744,8.744,0,0,1-2.04,2.1Z" transform="translate(1207 11035.619)" fill="#fff"/>
  </g>
</svg>
